# Blender 4.2.3 LTS
# www.blender.org
mtllib bottom.mtl
o groundFloor
v -9.000000 -0.500000 9.050192
v -9.000000 1.500000 9.050192
v -9.000000 -0.500000 8.949808
v -9.000000 1.500000 8.949808
v 9.000000 -0.500000 9.050192
v 9.000000 1.500000 9.050192
v 9.000000 -0.500000 8.949808
v 9.000000 1.500000 8.949808
vn -1.0000 -0.0000 -0.0000
vn -0.0000 -0.0000 -1.0000
vn 1.0000 -0.0000 -0.0000
vn -0.0000 -0.0000 1.0000
vn -0.0000 -1.0000 -0.0000
vn -0.0000 1.0000 -0.0000
vt 0.375000 0.000000
vt 0.625000 0.000000
vt 0.625000 0.250000
vt 0.375000 0.250000
vt 0.625000 0.500000
vt 0.375000 0.500000
vt 0.625000 0.750000
vt 0.375000 0.750000
vt 0.625000 1.000000
vt 0.375000 1.000000
vt 0.125000 0.500000
vt 0.125000 0.750000
vt 0.875000 0.500000
vt 0.875000 0.750000
s 0
usemtl Material
f 1/1/1 2/2/1 4/3/1 3/4/1
f 3/4/2 4/3/2 8/5/2 7/6/2
f 7/6/3 8/5/3 6/7/3 5/8/3
f 5/8/4 6/7/4 2/9/4 1/10/4
f 3/11/5 7/6/5 5/8/5 1/12/5
f 8/5/6 4/13/6 2/14/6 6/7/6
o groundFloor.001
v 9.000000 -0.559806 -9.000000
v 9.000000 -0.440194 -9.000000
v 9.000000 -0.559806 9.000000
v -9.000000 -0.559806 -9.000000
v -9.000000 -0.440194 -9.000000
v -9.000000 -0.559806 9.000000
v -9.000000 -0.440194 9.000000
v 9.000000 -0.440194 9.000000
vn -0.0000 -0.0000 1.0000
vn -1.0000 -0.0000 -0.0000
vn -0.0000 1.0000 -0.0000
vn 1.0000 -0.0000 -0.0000
vn -0.0000 -0.0000 -1.0000
vn -0.0000 -1.0000 -0.0000
vt 0.375000 0.250000
vt 0.625000 0.250000
vt 0.625000 0.500000
vt 0.375000 0.500000
vt 0.625000 0.750000
vt 0.375000 0.750000
vt 0.875000 0.500000
vt 0.875000 0.750000
vt 0.375000 0.000000
vt 0.625000 0.000000
vt 0.625000 1.000000
vt 0.375000 1.000000
vt 0.125000 0.500000
vt 0.125000 0.750000
s 0
usemtl Material
f 13/15/7 12/16/7 9/17/7 10/18/7
f 10/18/8 9/17/8 11/19/8 16/20/8
f 9/17/9 12/21/9 14/22/9 11/19/9
f 15/23/10 14/24/10 12/16/10 13/15/10
f 16/20/11 11/19/11 14/25/11 15/26/11
f 13/27/12 10/18/12 16/20/12 15/28/12
o groundFloor.002
v -9.000000 -0.500000 -8.949808
v -9.000000 -0.500000 -9.050192
v -9.000000 1.500000 -8.949808
v 9.000000 -0.500000 -8.949808
v 9.000000 -0.500000 -9.050192
v 9.000000 1.500000 -8.949808
v 9.000000 1.500000 -9.050192
v -9.000000 1.500000 -9.050192
vn -0.0000 -1.0000 -0.0000
vn -1.0000 -0.0000 -0.0000
vn -0.0000 -0.0000 1.0000
vn 1.0000 -0.0000 -0.0000
vn -0.0000 1.0000 -0.0000
vn -0.0000 -0.0000 -1.0000
vt 0.125000 0.500000
vt 0.375000 0.500000
vt 0.375000 0.750000
vt 0.125000 0.750000
vt 0.375000 0.000000
vt 0.625000 0.000000
vt 0.625000 0.250000
vt 0.375000 0.250000
vt 0.625000 0.750000
vt 0.625000 1.000000
vt 0.375000 1.000000
vt 0.625000 0.500000
vt 0.875000 0.500000
vt 0.875000 0.750000
s 0
usemtl Material
f 18/29/13 21/30/13 20/31/13 17/32/13
f 17/33/14 19/34/14 24/35/14 18/36/14
f 20/31/15 22/37/15 19/38/15 17/39/15
f 21/30/16 23/40/16 22/37/16 20/31/16
f 23/40/17 24/41/17 19/42/17 22/37/17
f 18/36/18 24/35/18 23/40/18 21/30/18
o groundFloor.003
v -9.049999 -0.500000 9.000000
v -9.049999 -0.500000 -9.000000
v -9.049999 1.500000 9.000000
v -8.950000 -0.500000 9.000000
v -8.950000 -0.500000 -9.000000
v -8.950000 1.500000 9.000000
v -8.950000 1.500000 -9.000000
v -9.049999 1.500000 -9.000000
vn -0.0000 -1.0000 -0.0000
vn -1.0000 -0.0000 -0.0000
vn -0.0000 -0.0000 1.0000
vn 1.0000 -0.0000 -0.0000
vn -0.0000 1.0000 -0.0000
vn -0.0000 -0.0000 -1.0000
vt 0.125000 0.500000
vt 0.375000 0.500000
vt 0.375000 0.750000
vt 0.125000 0.750000
vt 0.375000 0.000000
vt 0.625000 0.000000
vt 0.625000 0.250000
vt 0.375000 0.250000
vt 0.625000 0.750000
vt 0.625000 1.000000
vt 0.375000 1.000000
vt 0.625000 0.500000
vt 0.875000 0.500000
vt 0.875000 0.750000
s 0
usemtl Material
f 26/43/19 29/44/19 28/45/19 25/46/19
f 25/47/20 27/48/20 32/49/20 26/50/20
f 28/45/21 30/51/21 27/52/21 25/53/21
f 29/44/22 31/54/22 30/51/22 28/45/22
f 31/54/23 32/55/23 27/56/23 30/51/23
f 26/50/24 32/49/24 31/54/24 29/44/24
o groundFloor.004
v 8.950000 -0.500000 9.000000
v 8.950000 -0.500000 3.000000
v 8.950000 1.500000 9.000000
v 9.049999 -0.500000 9.000000
v 9.049999 -0.500000 3.000000
v 9.049999 1.500000 9.000000
v 9.049999 1.500000 3.000000
v 8.950000 1.500000 3.000000
vn -0.0000 -1.0000 -0.0000
vn -1.0000 -0.0000 -0.0000
vn -0.0000 -0.0000 1.0000
vn 1.0000 -0.0000 -0.0000
vn -0.0000 1.0000 -0.0000
vn -0.0000 -0.0000 -1.0000
vt 0.125000 0.500000
vt 0.375000 0.500000
vt 0.375000 0.750000
vt 0.125000 0.750000
vt 0.375000 0.000000
vt 0.625000 0.000000
vt 0.625000 0.250000
vt 0.375000 0.250000
vt 0.625000 0.750000
vt 0.625000 1.000000
vt 0.375000 1.000000
vt 0.625000 0.500000
vt 0.875000 0.500000
vt 0.875000 0.750000
s 0
usemtl Material
f 34/57/25 37/58/25 36/59/25 33/60/25
f 33/61/26 35/62/26 40/63/26 34/64/26
f 36/59/27 38/65/27 35/66/27 33/67/27
f 37/58/28 39/68/28 38/65/28 36/59/28
f 39/68/29 40/69/29 35/70/29 38/65/29
f 34/64/30 40/63/30 39/68/30 37/58/30
o groundFloor.005
v 8.950000 -0.500000 1.000000
v 8.950000 -0.500000 -9.000000
v 8.950000 1.500000 1.000000
v 9.049999 -0.500000 1.000000
v 9.049999 -0.500000 -9.000000
v 9.049999 1.500000 1.000000
v 9.049999 1.500000 -9.000000
v 8.950000 1.500000 -9.000000
vn -0.0000 -1.0000 -0.0000
vn -1.0000 -0.0000 -0.0000
vn -0.0000 -0.0000 1.0000
vn 1.0000 -0.0000 -0.0000
vn -0.0000 1.0000 -0.0000
vn -0.0000 -0.0000 -1.0000
vt 0.125000 0.500000
vt 0.375000 0.500000
vt 0.375000 0.750000
vt 0.125000 0.750000
vt 0.375000 0.000000
vt 0.625000 0.000000
vt 0.625000 0.250000
vt 0.375000 0.250000
vt 0.625000 0.750000
vt 0.625000 1.000000
vt 0.375000 1.000000
vt 0.625000 0.500000
vt 0.875000 0.500000
vt 0.875000 0.750000
s 0
usemtl Material
f 42/71/31 45/72/31 44/73/31 41/74/31
f 41/75/32 43/76/32 48/77/32 42/78/32
f 44/73/33 46/79/33 43/80/33 41/81/33
f 45/72/34 47/82/34 46/79/34 44/73/34
f 47/82/35 48/83/35 43/84/35 46/79/35
f 42/78/36 48/77/36 47/82/36 45/72/36
o groundFloor.006
v -4.000000 -0.500000 1.050000
v -4.000000 -0.500000 0.950000
v -4.000000 1.500000 1.050000
v 0.000000 -0.500000 1.050000
v 0.000000 -0.500000 0.950000
v 0.000000 1.500000 1.050000
v 0.000000 1.500000 0.950000
v -4.000000 1.500000 0.950000
vn -0.0000 -1.0000 -0.0000
vn -1.0000 -0.0000 -0.0000
vn -0.0000 -0.0000 1.0000
vn 1.0000 -0.0000 -0.0000
vn -0.0000 1.0000 -0.0000
vn -0.0000 -0.0000 -1.0000
vt 0.125000 0.500000
vt 0.375000 0.500000
vt 0.375000 0.750000
vt 0.125000 0.750000
vt 0.375000 0.000000
vt 0.625000 0.000000
vt 0.625000 0.250000
vt 0.375000 0.250000
vt 0.625000 0.750000
vt 0.625000 1.000000
vt 0.375000 1.000000
vt 0.625000 0.500000
vt 0.875000 0.500000
vt 0.875000 0.750000
s 0
usemtl Material
f 50/85/37 53/86/37 52/87/37 49/88/37
f 49/89/38 51/90/38 56/91/38 50/92/38
f 52/87/39 54/93/39 51/94/39 49/95/39
f 53/86/40 55/96/40 54/93/40 52/87/40
f 55/96/41 56/97/41 51/98/41 54/93/41
f 50/92/42 56/91/42 55/96/42 53/86/42
o groundFloor.007
v 6.000000 -0.500000 1.050000
v 6.000000 -0.500000 0.950000
v 6.000000 1.500000 1.050000
v 9.000000 -0.500000 1.050000
v 9.000000 -0.500000 0.950000
v 9.000000 1.500000 1.050000
v 9.000000 1.500000 0.950000
v 6.000000 1.500000 0.950000
vn -0.0000 -1.0000 -0.0000
vn -1.0000 -0.0000 -0.0000
vn -0.0000 -0.0000 1.0000
vn 1.0000 -0.0000 -0.0000
vn -0.0000 1.0000 -0.0000
vn -0.0000 -0.0000 -1.0000
vt 0.125000 0.500000
vt 0.375000 0.500000
vt 0.375000 0.750000
vt 0.125000 0.750000
vt 0.375000 0.000000
vt 0.625000 0.000000
vt 0.625000 0.250000
vt 0.375000 0.250000
vt 0.625000 0.750000
vt 0.625000 1.000000
vt 0.375000 1.000000
vt 0.625000 0.500000
vt 0.875000 0.500000
vt 0.875000 0.750000
s 0
usemtl Material
f 58/99/43 61/100/43 60/101/43 57/102/43
f 57/103/44 59/104/44 64/105/44 58/106/44
f 60/101/45 62/107/45 59/108/45 57/109/45
f 61/100/46 63/110/46 62/107/46 60/101/46
f 63/110/47 64/111/47 59/112/47 62/107/47
f 58/106/48 64/105/48 63/110/48 61/100/48
o groundFloor.008
v 1.000000 -0.500000 1.050000
v 1.000000 -0.500000 0.950000
v 1.000000 1.500000 1.050000
v 5.000000 -0.500000 1.050000
v 5.000000 -0.500000 0.950000
v 5.000000 1.500000 1.050000
v 5.000000 1.500000 0.950000
v 1.000000 1.500000 0.950000
vn -0.0000 -1.0000 -0.0000
vn -1.0000 -0.0000 -0.0000
vn -0.0000 -0.0000 1.0000
vn 1.0000 -0.0000 -0.0000
vn -0.0000 1.0000 -0.0000
vn -0.0000 -0.0000 -1.0000
vt 0.125000 0.500000
vt 0.375000 0.500000
vt 0.375000 0.750000
vt 0.125000 0.750000
vt 0.375000 0.000000
vt 0.625000 0.000000
vt 0.625000 0.250000
vt 0.375000 0.250000
vt 0.625000 0.750000
vt 0.625000 1.000000
vt 0.375000 1.000000
vt 0.625000 0.500000
vt 0.875000 0.500000
vt 0.875000 0.750000
s 0
usemtl Material
f 66/113/49 69/114/49 68/115/49 65/116/49
f 65/117/50 67/118/50 72/119/50 66/120/50
f 68/115/51 70/121/51 67/122/51 65/123/51
f 69/114/52 71/124/52 70/121/52 68/115/52
f 71/124/53 72/125/53 67/126/53 70/121/53
f 66/120/54 72/119/54 71/124/54 69/114/54
o groundFloor.009
v -9.000000 -0.500000 1.050000
v -9.000000 -0.500000 0.950000
v -9.000000 1.500000 1.050000
v -5.000000 -0.500000 1.050000
v -5.000000 -0.500000 0.950000
v -5.000000 1.500000 1.050000
v -5.000000 1.500000 0.950000
v -9.000000 1.500000 0.950000
vn -0.0000 -1.0000 -0.0000
vn -1.0000 -0.0000 -0.0000
vn -0.0000 -0.0000 1.0000
vn 1.0000 -0.0000 -0.0000
vn -0.0000 1.0000 -0.0000
vn -0.0000 -0.0000 -1.0000
vt 0.125000 0.500000
vt 0.375000 0.500000
vt 0.375000 0.750000
vt 0.125000 0.750000
vt 0.375000 0.000000
vt 0.625000 0.000000
vt 0.625000 0.250000
vt 0.375000 0.250000
vt 0.625000 0.750000
vt 0.625000 1.000000
vt 0.375000 1.000000
vt 0.625000 0.500000
vt 0.875000 0.500000
vt 0.875000 0.750000
s 0
usemtl Material
f 74/127/55 77/128/55 76/129/55 73/130/55
f 73/131/56 75/132/56 80/133/56 74/134/56
f 76/129/57 78/135/57 75/136/57 73/137/57
f 77/128/58 79/138/58 78/135/58 76/129/58
f 79/138/59 80/139/59 75/140/59 78/135/59
f 74/134/60 80/133/60 79/138/60 77/128/60
o groundFloor.010
v 6.000000 -0.500000 3.050000
v 6.000000 -0.500000 2.950000
v 6.000000 1.500000 3.050000
v 9.000000 -0.500000 3.050000
v 9.000000 -0.500000 2.950000
v 9.000000 1.500000 3.050000
v 9.000000 1.500000 2.950000
v 6.000000 1.500000 2.950000
vn -0.0000 -1.0000 -0.0000
vn -1.0000 -0.0000 -0.0000
vn -0.0000 -0.0000 1.0000
vn 1.0000 -0.0000 -0.0000
vn -0.0000 1.0000 -0.0000
vn -0.0000 -0.0000 -1.0000
vt 0.125000 0.500000
vt 0.375000 0.500000
vt 0.375000 0.750000
vt 0.125000 0.750000
vt 0.375000 0.000000
vt 0.625000 0.000000
vt 0.625000 0.250000
vt 0.375000 0.250000
vt 0.625000 0.750000
vt 0.625000 1.000000
vt 0.375000 1.000000
vt 0.625000 0.500000
vt 0.875000 0.500000
vt 0.875000 0.750000
s 0
usemtl Material
f 82/141/61 85/142/61 84/143/61 81/144/61
f 81/145/62 83/146/62 88/147/62 82/148/62
f 84/143/63 86/149/63 83/150/63 81/151/63
f 85/142/64 87/152/64 86/149/64 84/143/64
f 87/152/65 88/153/65 83/154/65 86/149/65
f 82/148/66 88/147/66 87/152/66 85/142/66
o groundFloor.011
v 1.000000 -0.500000 3.050000
v 1.000000 -0.500000 2.950000
v 1.000000 1.500000 3.050000
v 5.000000 -0.500000 3.050000
v 5.000000 -0.500000 2.950000
v 5.000000 1.500000 3.050000
v 5.000000 1.500000 2.950000
v 1.000000 1.500000 2.950000
vn -0.0000 -1.0000 -0.0000
vn -1.0000 -0.0000 -0.0000
vn -0.0000 -0.0000 1.0000
vn 1.0000 -0.0000 -0.0000
vn -0.0000 1.0000 -0.0000
vn -0.0000 -0.0000 -1.0000
vt 0.125000 0.500000
vt 0.375000 0.500000
vt 0.375000 0.750000
vt 0.125000 0.750000
vt 0.375000 0.000000
vt 0.625000 0.000000
vt 0.625000 0.250000
vt 0.375000 0.250000
vt 0.625000 0.750000
vt 0.625000 1.000000
vt 0.375000 1.000000
vt 0.625000 0.500000
vt 0.875000 0.500000
vt 0.875000 0.750000
s 0
usemtl Material
f 90/155/67 93/156/67 92/157/67 89/158/67
f 89/159/68 91/160/68 96/161/68 90/162/68
f 92/157/69 94/163/69 91/164/69 89/165/69
f 93/156/70 95/166/70 94/163/70 92/157/70
f 95/166/71 96/167/71 91/168/71 94/163/71
f 90/162/72 96/161/72 95/166/72 93/156/72
o groundFloor.012
v -4.000000 -0.500000 3.050000
v -4.000000 -0.500000 2.950000
v -4.000000 1.500000 3.050000
v 0.000000 -0.500000 3.050000
v 0.000000 -0.500000 2.950000
v 0.000000 1.500000 3.050000
v 0.000000 1.500000 2.950000
v -4.000000 1.500000 2.950000
vn -0.0000 -1.0000 -0.0000
vn -1.0000 -0.0000 -0.0000
vn -0.0000 -0.0000 1.0000
vn 1.0000 -0.0000 -0.0000
vn -0.0000 1.0000 -0.0000
vn -0.0000 -0.0000 -1.0000
vt 0.125000 0.500000
vt 0.375000 0.500000
vt 0.375000 0.750000
vt 0.125000 0.750000
vt 0.375000 0.000000
vt 0.625000 0.000000
vt 0.625000 0.250000
vt 0.375000 0.250000
vt 0.625000 0.750000
vt 0.625000 1.000000
vt 0.375000 1.000000
vt 0.625000 0.500000
vt 0.875000 0.500000
vt 0.875000 0.750000
s 0
usemtl Material
f 98/169/73 101/170/73 100/171/73 97/172/73
f 97/173/74 99/174/74 104/175/74 98/176/74
f 100/171/75 102/177/75 99/178/75 97/179/75
f 101/170/76 103/180/76 102/177/76 100/171/76
f 103/180/77 104/181/77 99/182/77 102/177/77
f 98/176/78 104/175/78 103/180/78 101/170/78
o groundFloor.013
v 2.950000 -0.500000 9.000000
v 2.950000 -0.500000 3.000000
v 2.950000 1.500000 9.000000
v 3.050000 -0.500000 9.000000
v 3.050000 -0.500000 3.000000
v 3.050000 1.500000 9.000000
v 3.050000 1.500000 3.000000
v 2.950000 1.500000 3.000000
vn -0.0000 -1.0000 -0.0000
vn -1.0000 -0.0000 -0.0000
vn -0.0000 -0.0000 1.0000
vn 1.0000 -0.0000 -0.0000
vn -0.0000 1.0000 -0.0000
vn -0.0000 -0.0000 -1.0000
vt 0.125000 0.500000
vt 0.375000 0.500000
vt 0.375000 0.750000
vt 0.125000 0.750000
vt 0.375000 0.000000
vt 0.625000 0.000000
vt 0.625000 0.250000
vt 0.375000 0.250000
vt 0.625000 0.750000
vt 0.625000 1.000000
vt 0.375000 1.000000
vt 0.625000 0.500000
vt 0.875000 0.500000
vt 0.875000 0.750000
s 0
usemtl Material
f 106/183/79 109/184/79 108/185/79 105/186/79
f 105/187/80 107/188/80 112/189/80 106/190/80
f 108/185/81 110/191/81 107/192/81 105/193/81
f 109/184/82 111/194/82 110/191/82 108/185/82
f 111/194/83 112/195/83 107/196/83 110/191/83
f 106/190/84 112/189/84 111/194/84 109/184/84
o groundFloor.014
v -4.050000 -0.500000 9.000000
v -4.050000 -0.500000 7.000000
v -4.050000 1.500000 9.000000
v -3.950000 -0.500000 9.000000
v -3.950000 -0.500000 7.000000
v -3.950000 1.500000 9.000000
v -3.950000 1.500000 7.000000
v -4.050000 1.500000 7.000000
vn -0.0000 -1.0000 -0.0000
vn -1.0000 -0.0000 -0.0000
vn -0.0000 -0.0000 1.0000
vn 1.0000 -0.0000 -0.0000
vn -0.0000 1.0000 -0.0000
vn -0.0000 -0.0000 -1.0000
vt 0.125000 0.500000
vt 0.375000 0.500000
vt 0.375000 0.750000
vt 0.125000 0.750000
vt 0.375000 0.000000
vt 0.625000 0.000000
vt 0.625000 0.250000
vt 0.375000 0.250000
vt 0.625000 0.750000
vt 0.625000 1.000000
vt 0.375000 1.000000
vt 0.625000 0.500000
vt 0.875000 0.500000
vt 0.875000 0.750000
s 0
usemtl Material
f 114/197/85 117/198/85 116/199/85 113/200/85
f 113/201/86 115/202/86 120/203/86 114/204/86
f 116/199/87 118/205/87 115/206/87 113/207/87
f 117/198/88 119/208/88 118/205/88 116/199/88
f 119/208/89 120/209/89 115/210/89 118/205/89
f 114/204/90 120/203/90 119/208/90 117/198/90
o groundFloor.015
v -4.050000 -0.500000 6.000000
v -4.050000 -0.500000 1.000000
v -4.050000 1.500000 6.000000
v -3.950000 -0.500000 6.000000
v -3.950000 -0.500000 1.000000
v -3.950000 1.500000 6.000000
v -3.950000 1.500000 1.000000
v -4.050000 1.500000 1.000000
vn -0.0000 -1.0000 -0.0000
vn -1.0000 -0.0000 -0.0000
vn -0.0000 -0.0000 1.0000
vn 1.0000 -0.0000 -0.0000
vn -0.0000 1.0000 -0.0000
vn -0.0000 -0.0000 -1.0000
vt 0.125000 0.500000
vt 0.375000 0.500000
vt 0.375000 0.750000
vt 0.125000 0.750000
vt 0.375000 0.000000
vt 0.625000 0.000000
vt 0.625000 0.250000
vt 0.375000 0.250000
vt 0.625000 0.750000
vt 0.625000 1.000000
vt 0.375000 1.000000
vt 0.625000 0.500000
vt 0.875000 0.500000
vt 0.875000 0.750000
s 0
usemtl Material
f 122/211/91 125/212/91 124/213/91 121/214/91
f 121/215/92 123/216/92 128/217/92 122/218/92
f 124/213/93 126/219/93 123/220/93 121/221/93
f 125/212/94 127/222/94 126/219/94 124/213/94
f 127/222/95 128/223/95 123/224/95 126/219/95
f 122/218/96 128/217/96 127/222/96 125/212/96
o groundFloor.016
v 2.950000 -0.500000 1.000000
v 2.950000 -0.500000 -9.000000
v 2.950000 1.500000 1.000000
v 3.050000 -0.500000 1.000000
v 3.050000 -0.500000 -9.000000
v 3.050000 1.500000 1.000000
v 3.050000 1.500000 -9.000000
v 2.950000 1.500000 -9.000000
vn -0.0000 -1.0000 -0.0000
vn -1.0000 -0.0000 -0.0000
vn -0.0000 -0.0000 1.0000
vn 1.0000 -0.0000 -0.0000
vn -0.0000 1.0000 -0.0000
vn -0.0000 -0.0000 -1.0000
vt 0.125000 0.500000
vt 0.375000 0.500000
vt 0.375000 0.750000
vt 0.125000 0.750000
vt 0.375000 0.000000
vt 0.625000 0.000000
vt 0.625000 0.250000
vt 0.375000 0.250000
vt 0.625000 0.750000
vt 0.625000 1.000000
vt 0.375000 1.000000
vt 0.625000 0.500000
vt 0.875000 0.500000
vt 0.875000 0.750000
s 0
usemtl Material
f 130/225/97 133/226/97 132/227/97 129/228/97
f 129/229/98 131/230/98 136/231/98 130/232/98
f 132/227/99 134/233/99 131/234/99 129/235/99
f 133/226/100 135/236/100 134/233/100 132/227/100
f 135/236/101 136/237/101 131/238/101 134/233/101
f 130/232/102 136/231/102 135/236/102 133/226/102
o groundFloor.017
v 2.999505 -0.899237 -7.000383
v 2.999635 -0.899480 -9.000252
v 2.996106 -0.487782 -7.007601
v 7.999145 -0.899224 -7.000261
v 7.999413 -0.899466 -9.000181
v 7.980880 -0.487248 -7.002491
v 7.993879 -0.495520 -9.001091
v 2.997932 -0.495881 -9.002289
vn -0.0000 -1.0000 0.0001
vn -1.0000 -0.0063 -0.0005
vn -0.0005 0.0115 0.9999
vn 0.9996 0.0292 0.0033
vn -0.0001 1.0000 -0.0041
vn 0.0001 -0.0036 -1.0000
vt 0.125000 0.500000
vt 0.375000 0.500000
vt 0.375000 0.750000
vt 0.125000 0.750000
vt 0.375000 0.000000
vt 0.625000 0.000000
vt 0.625000 0.250000
vt 0.375000 0.250000
vt 0.625000 0.750000
vt 0.625000 1.000000
vt 0.375000 1.000000
vt 0.625000 0.500000
vt 0.875000 0.500000
vt 0.875000 0.750000
s 0
usemtl Material
f 138/239/103 141/240/103 140/241/103 137/242/103
f 137/243/104 139/244/104 144/245/104 138/246/104
f 140/241/105 142/247/105 139/248/105 137/249/105
f 141/240/106 143/250/106 142/247/106 140/241/106
f 143/250/107 144/251/107 139/252/107 142/247/107
f 138/246/108 144/245/108 143/250/108 141/240/108
o groundFloor.018
v 2.999604 -0.499237 -7.000383
v 2.999709 -0.499480 -9.000252
v 2.996886 -0.087782 -7.007601
v 6.999316 -0.499224 -7.000261
v 6.999530 -0.499466 -9.000181
v 6.984704 -0.087248 -7.002491
v 6.995103 -0.095520 -9.001091
v 2.998347 -0.095881 -9.002289
vn -0.0000 -1.0000 0.0001
vn -1.0000 -0.0050 -0.0004
vn -0.0007 0.0115 0.9999
vn 0.9997 0.0233 0.0026
vn -0.0001 1.0000 -0.0041
vn 0.0002 -0.0036 -1.0000
vt 0.125000 0.500000
vt 0.375000 0.500000
vt 0.375000 0.750000
vt 0.125000 0.750000
vt 0.375000 0.000000
vt 0.625000 0.000000
vt 0.625000 0.250000
vt 0.375000 0.250000
vt 0.625000 0.750000
vt 0.625000 1.000000
vt 0.375000 1.000000
vt 0.625000 0.500000
vt 0.875000 0.500000
vt 0.875000 0.750000
s 0
usemtl Material
f 146/253/109 149/254/109 148/255/109 145/256/109
f 145/257/110 147/258/110 152/259/110 146/260/110
f 148/255/111 150/261/111 147/262/111 145/263/111
f 149/254/112 151/264/112 150/261/112 148/255/112
f 151/264/113 152/265/113 147/266/113 150/261/113
f 146/260/114 152/259/114 151/264/114 149/254/114
o groundFloor.019
v 2.999703 -0.099237 -7.000383
v 2.999781 -0.099480 -9.000252
v 2.997664 0.312218 -7.007601
v 5.999487 -0.099224 -7.000261
v 5.999648 -0.099466 -9.000181
v 5.988528 0.312752 -7.002491
v 5.996327 0.304480 -9.001091
v 2.998760 0.304119 -9.002289
vn -0.0000 -1.0000 0.0001
vn -1.0000 -0.0038 -0.0003
vn -0.0009 0.0115 0.9999
vn 0.9998 0.0175 0.0020
vn -0.0001 1.0000 -0.0041
vn 0.0002 -0.0036 -1.0000
vt 0.125000 0.500000
vt 0.375000 0.500000
vt 0.375000 0.750000
vt 0.125000 0.750000
vt 0.375000 0.000000
vt 0.625000 0.000000
vt 0.625000 0.250000
vt 0.375000 0.250000
vt 0.625000 0.750000
vt 0.625000 1.000000
vt 0.375000 1.000000
vt 0.625000 0.500000
vt 0.875000 0.500000
vt 0.875000 0.750000
s 0
usemtl Material
f 154/267/115 157/268/115 156/269/115 153/270/115
f 153/271/116 155/272/116 160/273/116 154/274/116
f 156/269/117 158/275/117 155/276/117 153/277/117
f 157/268/118 159/278/118 158/275/118 156/269/118
f 159/278/119 160/279/119 155/280/119 158/275/119
f 154/274/120 160/273/120 159/278/120 157/268/120
o groundFloor.020
v 2.999802 0.300763 -7.000383
v 2.999854 0.300520 -9.000252
v 2.998443 0.712218 -7.007601
v 4.999658 0.300776 -7.000261
v 4.999765 0.300534 -9.000181
v 4.992352 0.712752 -7.002491
v 4.997551 0.704480 -9.001091
v 2.999173 0.704119 -9.002289
vn -0.0000 -1.0000 0.0001
vn -1.0000 -0.0025 -0.0002
vn -0.0013 0.0115 0.9999
vn 0.9999 0.0117 0.0013
vn -0.0002 1.0000 -0.0041
vn 0.0003 -0.0036 -1.0000
vt 0.125000 0.500000
vt 0.375000 0.500000
vt 0.375000 0.750000
vt 0.125000 0.750000
vt 0.375000 0.000000
vt 0.625000 0.000000
vt 0.625000 0.250000
vt 0.375000 0.250000
vt 0.625000 0.750000
vt 0.625000 1.000000
vt 0.375000 1.000000
vt 0.625000 0.500000
vt 0.875000 0.500000
vt 0.875000 0.750000
s 0
usemtl Material
f 162/281/121 165/282/121 164/283/121 161/284/121
f 161/285/122 163/286/122 168/287/122 162/288/122
f 164/283/123 166/289/123 163/290/123 161/291/123
f 165/282/124 167/292/124 166/289/124 164/283/124
f 167/292/125 168/293/125 163/294/125 166/289/125
f 162/288/126 168/287/126 167/292/126 165/282/126
o groundFloor.021
v 2.999901 0.700763 -7.000383
v 2.999927 0.700520 -9.000252
v 2.999221 1.112218 -7.007601
v 3.999829 0.700776 -7.000261
v 3.999882 0.700534 -9.000181
v 3.996176 1.112752 -7.002491
v 3.998776 1.104480 -9.001091
v 2.999587 1.104119 -9.002289
vn -0.0000 -1.0000 0.0001
vn -1.0000 -0.0013 -0.0001
vn -0.0026 0.0115 0.9999
vn 1.0000 0.0058 0.0007
vn -0.0004 1.0000 -0.0041
vn 0.0006 -0.0036 -1.0000
vt 0.125000 0.500000
vt 0.375000 0.500000
vt 0.375000 0.750000
vt 0.125000 0.750000
vt 0.375000 0.000000
vt 0.625000 0.000000
vt 0.625000 0.250000
vt 0.375000 0.250000
vt 0.625000 0.750000
vt 0.625000 1.000000
vt 0.375000 1.000000
vt 0.625000 0.500000
vt 0.875000 0.500000
vt 0.875000 0.750000
s 0
usemtl Material
f 170/295/127 173/296/127 172/297/127 169/298/127
f 169/299/128 171/300/128 176/301/128 170/302/128
f 172/297/129 174/303/129 171/304/129 169/305/129
f 173/296/130 175/306/130 174/303/130 172/297/130
f 175/306/131 176/307/131 171/308/131 174/303/131
f 170/302/132 176/301/132 175/306/132 173/296/132
o Cube
v -9.000000 1.450000 9.000000
v -9.000000 1.550000 9.000000
v -9.000000 1.450000 -9.000000
v -9.000000 1.550000 -9.000000
v 3.000000 1.450000 9.000000
v 3.000000 1.550000 9.000000
v 3.000000 1.450000 -9.000000
v 3.000000 1.550000 -9.000000
vn -1.0000 -0.0000 -0.0000
vn -0.0000 -0.0000 -1.0000
vn 1.0000 -0.0000 -0.0000
vn -0.0000 -0.0000 1.0000
vn -0.0000 -1.0000 -0.0000
vn -0.0000 1.0000 -0.0000
vt 0.375000 0.000000
vt 0.625000 0.000000
vt 0.625000 0.250000
vt 0.375000 0.250000
vt 0.625000 0.500000
vt 0.375000 0.500000
vt 0.625000 0.750000
vt 0.375000 0.750000
vt 0.625000 1.000000
vt 0.375000 1.000000
vt 0.125000 0.500000
vt 0.125000 0.750000
vt 0.875000 0.500000
vt 0.875000 0.750000
s 0
f 177/309/133 178/310/133 180/311/133 179/312/133
f 179/312/134 180/311/134 184/313/134 183/314/134
f 183/314/135 184/313/135 182/315/135 181/316/135
f 181/316/136 182/315/136 178/317/136 177/318/136
f 179/319/137 183/314/137 181/316/137 177/320/137
f 184/313/138 180/321/138 178/322/138 182/315/138
o Cube.001
v 3.000000 1.450000 9.000000
v 3.000000 1.550000 9.000000
v 3.000000 1.450000 -7.000000
v 3.000000 1.550000 -7.000000
v 9.000000 1.450000 9.000000
v 9.000000 1.550000 9.000000
v 9.000000 1.450000 -7.000000
v 9.000000 1.550000 -7.000000
vn -1.0000 -0.0000 -0.0000
vn -0.0000 -0.0000 -1.0000
vn 1.0000 -0.0000 -0.0000
vn -0.0000 -0.0000 1.0000
vn -0.0000 -1.0000 -0.0000
vn -0.0000 1.0000 -0.0000
vt 0.375000 0.000000
vt 0.625000 0.000000
vt 0.625000 0.250000
vt 0.375000 0.250000
vt 0.625000 0.500000
vt 0.375000 0.500000
vt 0.625000 0.750000
vt 0.375000 0.750000
vt 0.625000 1.000000
vt 0.375000 1.000000
vt 0.125000 0.500000
vt 0.125000 0.750000
vt 0.875000 0.500000
vt 0.875000 0.750000
s 0
f 185/323/139 186/324/139 188/325/139 187/326/139
f 187/326/140 188/325/140 192/327/140 191/328/140
f 191/328/141 192/327/141 190/329/141 189/330/141
f 189/330/142 190/329/142 186/331/142 185/332/142
f 187/333/143 191/328/143 189/330/143 185/334/143
f 192/327/144 188/335/144 186/336/144 190/329/144
